<mxfile modified="2019-10-28T08:16:57.656Z" host="www.draw.io" agent="Mozilla/5.0 (Windows NT 10.0; Win64; x64) AppleWebKit/537.36 (KHTML, like Gecko) Chrome/77.0.3865.120 Safari/537.36" etag="uzdLKhoWtJyDgSX40v92" version="12.1.7" type="github" pages="1">
  <diagram id="0lIFZuy710NaTiTOwi-b" name="Page-1">
    <mxGraphModel dx="1116" dy="529" grid="1" gridSize="10" guides="1" tooltips="1" connect="1" arrows="1" fold="1" page="1" pageScale="1" pageWidth="827" pageHeight="1169" math="0" shadow="0">
      <root>
        <mxCell id="0"/>
        <mxCell id="1" parent="0"/>
        <mxCell id="5yxAfS7ZbW8CHcs9OhZo-58" value="" style="edgeStyle=orthogonalEdgeStyle;rounded=0;orthogonalLoop=1;jettySize=auto;html=1;endArrow=open;endFill=0;strokeColor=#000000;" parent="1" edge="1">
          <mxGeometry relative="1" as="geometry">
            <mxPoint x="403" y="700" as="sourcePoint"/>
            <mxPoint x="408" y="750" as="targetPoint"/>
            <Array as="points">
              <mxPoint x="403" y="690"/>
              <mxPoint x="408" y="690"/>
            </Array>
          </mxGeometry>
        </mxCell>
        <mxCell id="5yxAfS7ZbW8CHcs9OhZo-1" value="" style="ellipse;html=1;shape=endState;fillColor=#000000;strokeColor=#000000;" parent="1" vertex="1">
          <mxGeometry x="393" y="870.1356201171875" width="30" height="30" as="geometry"/>
        </mxCell>
        <mxCell id="5yxAfS7ZbW8CHcs9OhZo-2" value="" style="ellipse;html=1;shape=startState;fillColor=#000000;strokeColor=#000000;" parent="1" vertex="1">
          <mxGeometry x="350" y="50" width="30" height="30" as="geometry"/>
        </mxCell>
        <mxCell id="5yxAfS7ZbW8CHcs9OhZo-3" value="" style="edgeStyle=orthogonalEdgeStyle;html=1;verticalAlign=bottom;endArrow=open;endSize=8;strokeColor=#000000;endFill=0;arcSize=20;" parent="1" source="5yxAfS7ZbW8CHcs9OhZo-2" edge="1">
          <mxGeometry relative="1" as="geometry">
            <mxPoint x="365" y="110" as="targetPoint"/>
          </mxGeometry>
        </mxCell>
        <mxCell id="5yxAfS7ZbW8CHcs9OhZo-6" style="edgeStyle=orthogonalEdgeStyle;rounded=1;orthogonalLoop=1;jettySize=auto;html=1;strokeColor=#000000;endArrow=open;endFill=0;" parent="1" source="5yxAfS7ZbW8CHcs9OhZo-4" edge="1">
          <mxGeometry relative="1" as="geometry">
            <mxPoint x="365" y="200" as="targetPoint"/>
          </mxGeometry>
        </mxCell>
        <mxCell id="5yxAfS7ZbW8CHcs9OhZo-4" value="Login" style="rounded=1;whiteSpace=wrap;html=1;strokeColor=#000000;" parent="1" vertex="1">
          <mxGeometry x="305" y="110" width="120" height="60" as="geometry"/>
        </mxCell>
        <mxCell id="5yxAfS7ZbW8CHcs9OhZo-15" style="edgeStyle=orthogonalEdgeStyle;rounded=0;orthogonalLoop=1;jettySize=auto;html=1;exitX=1;exitY=0.5;exitDx=0;exitDy=0;endArrow=open;endFill=0;strokeColor=#000000;entryX=1;entryY=0.5;entryDx=0;entryDy=0;" parent="1" source="5yxAfS7ZbW8CHcs9OhZo-13" target="5yxAfS7ZbW8CHcs9OhZo-4" edge="1">
          <mxGeometry relative="1" as="geometry">
            <mxPoint x="450" y="240" as="targetPoint"/>
            <Array as="points">
              <mxPoint x="480" y="240"/>
              <mxPoint x="480" y="140"/>
            </Array>
          </mxGeometry>
        </mxCell>
        <mxCell id="5yxAfS7ZbW8CHcs9OhZo-17" style="edgeStyle=orthogonalEdgeStyle;rounded=0;orthogonalLoop=1;jettySize=auto;html=1;exitX=0.5;exitY=1;exitDx=0;exitDy=0;endArrow=open;endFill=0;strokeColor=#000000;" parent="1" source="5yxAfS7ZbW8CHcs9OhZo-13" edge="1">
          <mxGeometry relative="1" as="geometry">
            <mxPoint x="365" y="330" as="targetPoint"/>
          </mxGeometry>
        </mxCell>
        <mxCell id="5yxAfS7ZbW8CHcs9OhZo-13" value="Check Validity" style="rhombus;whiteSpace=wrap;html=1;strokeColor=#000000;" parent="1" vertex="1">
          <mxGeometry x="325" y="200" width="80" height="80" as="geometry"/>
        </mxCell>
        <mxCell id="5yxAfS7ZbW8CHcs9OhZo-16" value="Invalid" style="text;html=1;resizable=0;points=[];autosize=1;align=left;verticalAlign=top;spacingTop=-4;" parent="1" vertex="1">
          <mxGeometry x="488" y="181" width="50" height="20" as="geometry"/>
        </mxCell>
        <mxCell id="5yxAfS7ZbW8CHcs9OhZo-18" value="Add candidate" style="rounded=1;whiteSpace=wrap;html=1;strokeColor=#000000;" parent="1" vertex="1">
          <mxGeometry x="210" y="410" width="120" height="60" as="geometry"/>
        </mxCell>
        <mxCell id="5yxAfS7ZbW8CHcs9OhZo-19" value="Valid" style="text;html=1;resizable=0;points=[];autosize=1;align=left;verticalAlign=top;spacingTop=-4;" parent="1" vertex="1">
          <mxGeometry x="383" y="288" width="40" height="20" as="geometry"/>
        </mxCell>
        <mxCell id="5yxAfS7ZbW8CHcs9OhZo-20" value="" style="line;strokeWidth=7;fillColor=none;align=left;verticalAlign=middle;spacingTop=-1;spacingLeft=5;spacingRight=3;rotatable=0;labelPosition=right;points=[];portConstraint=eastwest;autosize=1;resizeWidth=1;resizeHeight=1;" parent="1" vertex="1">
          <mxGeometry x="98" y="314" width="610" height="36" as="geometry"/>
        </mxCell>
        <mxCell id="5yxAfS7ZbW8CHcs9OhZo-69" value="" style="edgeStyle=orthogonalEdgeStyle;rounded=0;orthogonalLoop=1;jettySize=auto;html=1;endArrow=open;endFill=0;strokeColor=#000000;" parent="1" source="5yxAfS7ZbW8CHcs9OhZo-22" target="5yxAfS7ZbW8CHcs9OhZo-68" edge="1">
          <mxGeometry relative="1" as="geometry"/>
        </mxCell>
        <mxCell id="5yxAfS7ZbW8CHcs9OhZo-22" value="Verify user" style="rounded=1;whiteSpace=wrap;html=1;strokeColor=#000000;" parent="1" vertex="1">
          <mxGeometry x="350" y="410" width="120" height="60" as="geometry"/>
        </mxCell>
        <mxCell id="5yxAfS7ZbW8CHcs9OhZo-68" value="Change status if user is legitimate" style="rounded=1;whiteSpace=wrap;html=1;strokeColor=#000000;" parent="1" vertex="1">
          <mxGeometry x="350" y="550" width="120" height="60" as="geometry"/>
        </mxCell>
        <mxCell id="5yxAfS7ZbW8CHcs9OhZo-24" value="Display Result" style="rounded=1;whiteSpace=wrap;html=1;strokeColor=#000000;" parent="1" vertex="1">
          <mxGeometry x="500" y="410" width="120" height="60" as="geometry"/>
        </mxCell>
        <mxCell id="5yxAfS7ZbW8CHcs9OhZo-41" style="edgeStyle=orthogonalEdgeStyle;rounded=0;orthogonalLoop=1;jettySize=auto;html=1;endArrow=open;endFill=0;strokeColor=#000000;entryX=0.5;entryY=0;entryDx=0;entryDy=0;exitX=0.045;exitY=0.522;exitDx=0;exitDy=0;exitPerimeter=0;" parent="1" source="5yxAfS7ZbW8CHcs9OhZo-20" target="5yxAfS7ZbW8CHcs9OhZo-26" edge="1">
          <mxGeometry relative="1" as="geometry">
            <mxPoint x="109.57142857142867" y="540" as="targetPoint"/>
            <Array as="points">
              <mxPoint x="110" y="333"/>
            </Array>
          </mxGeometry>
        </mxCell>
        <mxCell id="5yxAfS7ZbW8CHcs9OhZo-51" style="edgeStyle=orthogonalEdgeStyle;rounded=0;orthogonalLoop=1;jettySize=auto;html=1;endArrow=open;endFill=0;strokeColor=#000000;" parent="1" source="5yxAfS7ZbW8CHcs9OhZo-26" edge="1">
          <mxGeometry relative="1" as="geometry">
            <mxPoint x="110" y="680" as="targetPoint"/>
          </mxGeometry>
        </mxCell>
        <mxCell id="5yxAfS7ZbW8CHcs9OhZo-26" value="Deploy Contract" style="rounded=1;whiteSpace=wrap;html=1;strokeColor=#000000;" parent="1" vertex="1">
          <mxGeometry x="50" y="410" width="120" height="60" as="geometry"/>
        </mxCell>
        <mxCell id="5yxAfS7ZbW8CHcs9OhZo-30" value="" style="edgeStyle=orthogonalEdgeStyle;rounded=0;orthogonalLoop=1;jettySize=auto;html=1;endArrow=open;endFill=0;strokeColor=#000000;" parent="1" source="5yxAfS7ZbW8CHcs9OhZo-28" target="5yxAfS7ZbW8CHcs9OhZo-29" edge="1">
          <mxGeometry relative="1" as="geometry"/>
        </mxCell>
        <mxCell id="5yxAfS7ZbW8CHcs9OhZo-28" value="Create Voting phase" style="rounded=1;whiteSpace=wrap;html=1;strokeColor=#000000;" parent="1" vertex="1">
          <mxGeometry x="640" y="410" width="120" height="60" as="geometry"/>
        </mxCell>
        <mxCell id="5yxAfS7ZbW8CHcs9OhZo-57" style="edgeStyle=orthogonalEdgeStyle;rounded=0;orthogonalLoop=1;jettySize=auto;html=1;exitX=0.5;exitY=1;exitDx=0;exitDy=0;endArrow=open;endFill=0;strokeColor=#000000;" parent="1" source="5yxAfS7ZbW8CHcs9OhZo-29" edge="1">
          <mxGeometry relative="1" as="geometry">
            <mxPoint x="729.6666666666667" y="680" as="targetPoint"/>
          </mxGeometry>
        </mxCell>
        <mxCell id="5yxAfS7ZbW8CHcs9OhZo-29" value="Set Voting Time" style="rounded=1;whiteSpace=wrap;html=1;strokeColor=#000000;" parent="1" vertex="1">
          <mxGeometry x="670" y="550" width="120" height="60" as="geometry"/>
        </mxCell>
        <mxCell id="5yxAfS7ZbW8CHcs9OhZo-32" value="" style="line;strokeWidth=7;fillColor=none;align=left;verticalAlign=middle;spacingTop=-1;spacingLeft=5;spacingRight=3;rotatable=0;labelPosition=right;points=[];portConstraint=eastwest;autosize=1;resizeWidth=1;resizeHeight=1;" parent="1" vertex="1">
          <mxGeometry x="80" y="675" width="660" height="25" as="geometry"/>
        </mxCell>
        <mxCell id="5yxAfS7ZbW8CHcs9OhZo-43" style="edgeStyle=orthogonalEdgeStyle;rounded=0;orthogonalLoop=1;jettySize=auto;html=1;endArrow=open;endFill=0;strokeColor=#000000;entryX=0.5;entryY=0;entryDx=0;entryDy=0;exitX=0.045;exitY=0.522;exitDx=0;exitDy=0;exitPerimeter=0;" parent="1" edge="1">
          <mxGeometry relative="1" as="geometry">
            <mxPoint x="269.07142857142867" y="409.0000000000001" as="targetPoint"/>
            <mxPoint x="270.5" y="331.8571428571429" as="sourcePoint"/>
            <Array as="points">
              <mxPoint x="269.5" y="332"/>
            </Array>
          </mxGeometry>
        </mxCell>
        <mxCell id="5yxAfS7ZbW8CHcs9OhZo-44" style="edgeStyle=orthogonalEdgeStyle;rounded=0;orthogonalLoop=1;jettySize=auto;html=1;endArrow=open;endFill=0;strokeColor=#000000;entryX=0.5;entryY=0;entryDx=0;entryDy=0;exitX=0.045;exitY=0.522;exitDx=0;exitDy=0;exitPerimeter=0;" parent="1" edge="1">
          <mxGeometry relative="1" as="geometry">
            <mxPoint x="408.57142857142867" y="410.0000000000001" as="targetPoint"/>
            <mxPoint x="410" y="332.8571428571429" as="sourcePoint"/>
            <Array as="points">
              <mxPoint x="409" y="333"/>
            </Array>
          </mxGeometry>
        </mxCell>
        <mxCell id="5yxAfS7ZbW8CHcs9OhZo-45" style="edgeStyle=orthogonalEdgeStyle;rounded=0;orthogonalLoop=1;jettySize=auto;html=1;endArrow=open;endFill=0;strokeColor=#000000;entryX=0.5;entryY=0;entryDx=0;entryDy=0;exitX=0.045;exitY=0.522;exitDx=0;exitDy=0;exitPerimeter=0;" parent="1" edge="1">
          <mxGeometry relative="1" as="geometry">
            <mxPoint x="559.0714285714287" y="409.0000000000001" as="targetPoint"/>
            <mxPoint x="560.5" y="331.8571428571429" as="sourcePoint"/>
            <Array as="points">
              <mxPoint x="559.5" y="332"/>
            </Array>
          </mxGeometry>
        </mxCell>
        <mxCell id="5yxAfS7ZbW8CHcs9OhZo-46" style="edgeStyle=orthogonalEdgeStyle;rounded=0;orthogonalLoop=1;jettySize=auto;html=1;endArrow=open;endFill=0;strokeColor=#000000;entryX=0.5;entryY=0;entryDx=0;entryDy=0;exitX=0.045;exitY=0.522;exitDx=0;exitDy=0;exitPerimeter=0;" parent="1" edge="1">
          <mxGeometry relative="1" as="geometry">
            <mxPoint x="692.0714285714287" y="409.0000000000001" as="targetPoint"/>
            <mxPoint x="693.5" y="331.8571428571429" as="sourcePoint"/>
            <Array as="points">
              <mxPoint x="692.5" y="332"/>
            </Array>
          </mxGeometry>
        </mxCell>
        <mxCell id="5yxAfS7ZbW8CHcs9OhZo-53" style="edgeStyle=orthogonalEdgeStyle;rounded=0;orthogonalLoop=1;jettySize=auto;html=1;endArrow=open;endFill=0;strokeColor=#000000;" parent="1" edge="1">
          <mxGeometry relative="1" as="geometry">
            <mxPoint x="559" y="685" as="targetPoint"/>
            <mxPoint x="559" y="475" as="sourcePoint"/>
          </mxGeometry>
        </mxCell>
        <mxCell id="5yxAfS7ZbW8CHcs9OhZo-54" style="edgeStyle=orthogonalEdgeStyle;rounded=0;orthogonalLoop=1;jettySize=auto;html=1;endArrow=open;endFill=0;strokeColor=#000000;exitX=0.5;exitY=1;exitDx=0;exitDy=0;" parent="1" source="5yxAfS7ZbW8CHcs9OhZo-68" edge="1">
          <mxGeometry relative="1" as="geometry">
            <mxPoint x="413" y="680" as="targetPoint"/>
            <mxPoint x="413" y="620" as="sourcePoint"/>
            <Array as="points">
              <mxPoint x="413" y="610"/>
            </Array>
          </mxGeometry>
        </mxCell>
        <mxCell id="5yxAfS7ZbW8CHcs9OhZo-55" style="edgeStyle=orthogonalEdgeStyle;rounded=0;orthogonalLoop=1;jettySize=auto;html=1;endArrow=open;endFill=0;strokeColor=#000000;" parent="1" edge="1">
          <mxGeometry relative="1" as="geometry">
            <mxPoint x="269" y="680" as="targetPoint"/>
            <mxPoint x="269" y="470" as="sourcePoint"/>
          </mxGeometry>
        </mxCell>
        <mxCell id="5yxAfS7ZbW8CHcs9OhZo-66" value="" style="edgeStyle=orthogonalEdgeStyle;rounded=0;orthogonalLoop=1;jettySize=auto;html=1;endArrow=open;endFill=0;strokeColor=#000000;" parent="1" source="5yxAfS7ZbW8CHcs9OhZo-63" target="5yxAfS7ZbW8CHcs9OhZo-1" edge="1">
          <mxGeometry relative="1" as="geometry">
            <Array as="points">
              <mxPoint x="408" y="830"/>
              <mxPoint x="408" y="830"/>
            </Array>
          </mxGeometry>
        </mxCell>
        <mxCell id="5yxAfS7ZbW8CHcs9OhZo-63" value="Logout" style="rounded=1;whiteSpace=wrap;html=1;strokeColor=#000000;strokeWidth=1;" parent="1" vertex="1">
          <mxGeometry x="350" y="750" width="120" height="60" as="geometry"/>
        </mxCell>
        <mxCell id="5yxAfS7ZbW8CHcs9OhZo-67" value="&lt;b&gt;End&lt;/b&gt;" style="text;html=1;resizable=0;points=[];autosize=1;align=left;verticalAlign=top;spacingTop=-4;" parent="1" vertex="1">
          <mxGeometry x="388" y="913" width="40" height="20" as="geometry"/>
        </mxCell>
      </root>
    </mxGraphModel>
  </diagram>
</mxfile>
